<svg xmlns="http://www.w3.org/2000/svg" viewBox="0 0 394.63 170.48"><defs><style>.cls-1{fill:#fdc500;}</style></defs><g id="Layer_2" data-name="Layer 2"><g id="Layer_1-2" data-name="Layer 1"><path class="cls-1" d="M48.59,4.52q-5.27,0-11.29.33-12.87.68-19.19,3.26a22.55,22.55,0,0,0-10.42,9Q3.94,22.92,1.92,33L0,32.79,1.51,1.92H114.67l1.51,30.87-1.93.16q-2.25-11.63-7.07-17.6t-14-8.58Q85.4,4.52,66.83,4.52V89.83a61,61,0,0,0,1,12.67,14.26,14.26,0,0,0,3.55,6.82,14.08,14.08,0,0,0,5.32,3.51,27.25,27.25,0,0,0,7.73,1.34v1.92H31v-1.92a27.68,27.68,0,0,0,7.82-1.34,14,14,0,0,0,8.86-10.29,60.9,60.9,0,0,0,1-12.71Z"/><path class="cls-1" d="M155.3,46.59l28,38.81a181.75,181.75,0,0,0,8.2-16.78,27.61,27.61,0,0,0,2.34-9.93q0-8.09-11.62-9.76V47.17h32.54v1.68a22.63,22.63,0,0,0-6.28,1.29,14.8,14.8,0,0,0-4.6,3q-4.26,4-10.54,17.06l-2.59,5.36q-2.08,4.52-6.1,11.79,3.17,4.19,7.48,9t7.65,7.9a46.42,46.42,0,0,0,8.33,6.32,14.2,14.2,0,0,0,6.9,2,9.13,9.13,0,0,0,6-2,16.27,16.27,0,0,0,4.26-6.53l1.68.76q-4.19,14.22-18,14.22a29.09,29.09,0,0,1-9.62-1.76,33.22,33.22,0,0,1-9.12-4.85,79.4,79.4,0,0,1-13-12.63,92.17,92.17,0,0,1-6,8,33.19,33.19,0,0,1-11.34,8.32A33.81,33.81,0,0,1,146,118.94a35.32,35.32,0,0,1-13.11-2.51,27.87,27.87,0,0,1-10.34-6.86q-7.45-7.95-7.45-20.08a35.87,35.87,0,0,1,7.19-21.74,43.6,43.6,0,0,1,6.82-7.24,108.21,108.21,0,0,1,10.92-7.9l1.33-.92A104.91,104.91,0,0,1,134,40.06q-5.1-9.87-5.1-17.64a21.51,21.51,0,0,1,2.35-9.62,20.78,20.78,0,0,1,8.63-9.54A27.08,27.08,0,0,1,153.56,0q10.38,0,17.09,5.65a18.13,18.13,0,0,1,6.7,14.51,20.12,20.12,0,0,1-3.44,11.58q-3.43,5.07-11.15,9.91Q157.3,45.16,155.3,46.59ZM143.23,54A28.75,28.75,0,0,0,132.5,65.91a37.26,37.26,0,0,0-3.83,17,39.13,39.13,0,0,0,2,12.46,31.83,31.83,0,0,0,5.43,10.2,22.31,22.31,0,0,0,7.65,5.86,22,22,0,0,0,9.41,2.09,21.74,21.74,0,0,0,13.88-4.85,28.82,28.82,0,0,0,4.09-4.1,72.35,72.35,0,0,0,4.6-6.61Zm10.47-9.28a41.15,41.15,0,0,0,5.89-5.44,25.15,25.15,0,0,0,3.46-5.6A30.74,30.74,0,0,0,166,20.41q0-8.37-4-13.3a13.14,13.14,0,0,0-10.76-4.94,12.41,12.41,0,0,0-9.42,3.77,13.6,13.6,0,0,0-3.58,9.78,19.08,19.08,0,0,0,1.45,7.2,65,65,0,0,0,5.54,9.87Q149.13,38.8,153.7,44.75Z"/><path class="cls-1" d="M209,1.92h52.61V3.85c-4.9,0-8.25.36-10,1.08a8.21,8.21,0,0,0-3.68,3.27,9.33,9.33,0,0,0-1.43,5.1q0,3.51,2.68,9.7l2.17,5.19,26,63.56L295.44,37q3.51-10.54,3.51-15.73a20.91,20.91,0,0,0-1.38-7.48,16.4,16.4,0,0,0-3.64-5.9,12.42,12.42,0,0,0-5-3.09,23.09,23.09,0,0,0-7.15-.92V1.92h53.78V3.85a54.38,54.38,0,0,0-7.15.33,12.18,12.18,0,0,0-4.14,1.42,11.24,11.24,0,0,0-4.05,4.31A12.27,12.27,0,0,0,318.69,16q0,3,2.34,10.45l20.58,66.33,23-56.46q5.34-13,5.35-20.07Q370,8.77,365,5.69q-3-1.85-9.11-1.84V1.92h38.72V3.85A23.88,23.88,0,0,0,386.14,6a17.55,17.55,0,0,0-5.73,5.65Q376.24,17.48,370,32.79l-34.38,83.3h-3.43L302.38,27l-30.19,89.07h-3.77L231,26.1,228.52,20A63.53,63.53,0,0,0,224.18,11a14.4,14.4,0,0,0-8.62-6.27A42.1,42.1,0,0,0,209,3.85Z"/><path class="cls-1" d="M1.85,143.92H23.92v3.36H14.71v23.09h-3.8V147.28H1.85Z"/><path class="cls-1" d="M27.1,144h3.78v26.42H27.1Z"/><path class="cls-1" d="M36.84,170.33V144h8.91a18.77,18.77,0,0,1,8.53,1.62,12.28,12.28,0,0,1,5,4.76,13.25,13.25,0,0,1,1.85,6.84,12.93,12.93,0,0,1-3.93,9.32,12.67,12.67,0,0,1-4.48,2.86,13.28,13.28,0,0,1-2.74.78,35.36,35.36,0,0,1-4.77.2Zm8.51-23H40.63V167h4.84a19.16,19.16,0,0,0,4.4-.39,10.66,10.66,0,0,0,2.62-1,9.07,9.07,0,0,0,1.92-1.47,9.77,9.77,0,0,0,2.8-7.17,9.2,9.2,0,0,0-5.31-8.58,10.09,10.09,0,0,0-2.6-.85A26,26,0,0,0,45.35,147.32Z"/><path class="cls-1" d="M65.66,144h15v3.37H69.45v8.06H80.26v3.38H69.45V167H81v3.36H65.66Z"/><path class="cls-1" d="M101.6,144h4.59L96.43,156.4v14H92.56v-14L82.8,144h4.57l7.07,9.11Z"/><path class="cls-1" d="M128.3,143.8H131l11.85,26.57h-3.87l-3.52-7.83H124.14l-3.3,7.83H117Zm5.55,15.38-4.26-9.57-4,9.57Z"/><path class="cls-1" d="M166.58,144h3.59v26.42h-3.25L149.26,150v20.34H145.7V144h3.07l17.81,20.52Z"/><path class="cls-1" d="M176.05,170.33V144H185a18.73,18.73,0,0,1,8.52,1.62,12.24,12.24,0,0,1,5,4.76,13.25,13.25,0,0,1,1.85,6.84,12.93,12.93,0,0,1-3.93,9.32,12.62,12.62,0,0,1-4.49,2.86,13.11,13.11,0,0,1-2.74.78,35.18,35.18,0,0,1-4.76.2Zm8.51-23h-4.73V167h4.84a19.31,19.31,0,0,0,4.41-.39,10.82,10.82,0,0,0,2.62-1,9.07,9.07,0,0,0,1.92-1.47,9.8,9.8,0,0,0,2.79-7.17,9,9,0,0,0-2.87-6.93,9.31,9.31,0,0,0-2.43-1.65,10.09,10.09,0,0,0-2.6-.85A26.21,26.21,0,0,0,184.56,147.32Z"/><path class="cls-1" d="M249.46,144h3.78l-10.68,26.53h-.83L233.09,149l-8.73,21.48h-.81L212.9,144h3.81L224,162.16,231.32,144h3.58l7.36,18.21Z"/><path class="cls-1" d="M256.11,144h15v3.37H259.89v8.06H270.7v3.38H259.89V167h11.55v3.36H256.11Z"/><path class="cls-1" d="M284.59,170.37h-8.94V144h6.92a12.11,12.11,0,0,1,5.1.88,6.31,6.31,0,0,1,3.76,6q0,3.9-4,5.58a8.16,8.16,0,0,1,4.6,2.38,6.2,6.2,0,0,1,1.71,4.39,6.47,6.47,0,0,1-1,3.61,7.55,7.55,0,0,1-3.05,2.59A11.23,11.23,0,0,1,284.59,170.37Zm-1.91-23.05h-3.25v7.94h2.51c2,0,3.45-.38,4.3-1.15a3.86,3.86,0,0,0,1.28-3Q287.52,147.32,282.68,147.32Zm.28,11.31h-3.53V167h3.72a12.21,12.21,0,0,0,4.21-.48,4.08,4.08,0,0,0,2.45-3.69,3.79,3.79,0,0,0-.71-2.22,4.22,4.22,0,0,0-2-1.49A12.5,12.5,0,0,0,283,158.63Z"/><path class="cls-1" d="M306.71,170.37h-8.94V144h6.92a12.19,12.19,0,0,1,5.11.88,6.35,6.35,0,0,1,3.76,6q0,3.9-4,5.58a8.13,8.13,0,0,1,4.6,2.38,6.16,6.16,0,0,1,1.72,4.39,6.47,6.47,0,0,1-1,3.61,7.65,7.65,0,0,1-3.06,2.59A11.23,11.23,0,0,1,306.71,170.37Zm-1.91-23.05h-3.25v7.94h2.52c2,0,3.45-.38,4.3-1.15a3.85,3.85,0,0,0,1.27-3Q309.64,147.32,304.8,147.32Zm.29,11.31h-3.54V167h3.73a12.14,12.14,0,0,0,4.2-.48,4,4,0,0,0,1.78-1.5,3.89,3.89,0,0,0,.67-2.19,3.72,3.72,0,0,0-.71-2.22,4.23,4.23,0,0,0-2-1.49A12.58,12.58,0,0,0,305.09,158.63Z"/><path class="cls-1" d="M330.33,144h3.78v23H346v3.44H330.33Z"/><path class="cls-1" d="M343.25,143.92h22.07v3.36h-9.21v23.09h-3.8V147.28h-9.06Z"/><path class="cls-1" d="M368.51,170.33V144h8.9a18.77,18.77,0,0,1,8.53,1.62,12.22,12.22,0,0,1,5,4.76,13.16,13.16,0,0,1,1.86,6.84,13,13,0,0,1-3.94,9.32,12.58,12.58,0,0,1-4.48,2.86,13.28,13.28,0,0,1-2.74.78,35.26,35.26,0,0,1-4.77.2Zm8.51-23h-4.73V167h4.84a19.31,19.31,0,0,0,4.41-.39,10.73,10.73,0,0,0,2.61-1,9.07,9.07,0,0,0,1.92-1.47,9.77,9.77,0,0,0,2.8-7.17A9.07,9.07,0,0,0,386,150a9.31,9.31,0,0,0-2.43-1.65,10.22,10.22,0,0,0-2.6-.85A26.21,26.21,0,0,0,377,147.32Z"/></g></g></svg>